<?xml version="1.0" encoding="UTF-8" standalone="no"?>
<svg width="46px" height="45px" viewBox="0 0 46 45" version="1.1" xmlns="http://www.w3.org/2000/svg" xmlns:xlink="http://www.w3.org/1999/xlink">
    <!-- Generator: Sketch 41.2 (35397) - http://www.bohemiancoding.com/sketch -->
    <title>icon-sale copy</title>
    <desc>Created with Sketch.</desc>
    <defs>
        <polygon id="path-1" points="20 0 14.4122067 5.33348746 6.94486187 4.75320772 5.85365854 12.5141602 0 16.7818749 3.91399838 23.5186684 2.41128193 30.4635302 9.5017917 33.1938504 13.0551381 39.3919778 20 37.0153739 26.9448619 39.3919778 30.4982083 33.1938504 37.5864062 30.4635302 36.0860016 23.5186684 40 16.7818749 34.1440296 12.5141602 33.0528263 4.75320772 25.5877933 5.33348746"></polygon>
        <mask id="mask-2" maskContentUnits="userSpaceOnUse" maskUnits="objectBoundingBox" x="-2" y="-2" width="44" height="43.3919778">
            <rect x="-2" y="-2" width="44" height="43.3919778" fill="white"></rect>
            <use xlink:href="#path-1" fill="black"></use>
        </mask>
    </defs>
    <g id="Collection" stroke="none" stroke-width="1" fill="none" fill-rule="evenodd">
        <g id="cards" transform="translate(-194.000000, -1169.000000)">
            <g id="icon-sale" transform="translate(197.000000, 1172.000000)">
                <g id="Page-1-Copy">
                    <use fill="#ED2245" fill-rule="evenodd" xlink:href="#path-1"></use>
                    <use stroke-opacity="0.5" stroke="#FFFFFF" mask="url(#mask-2)" stroke-width="4" xlink:href="#path-1"></use>
                </g>
                <path d="M12.972973,19.57773 C12.8041366,19.3698685 12.5835015,19.2313832 12.3110611,19.1622697 C12.0386206,19.0931563 11.775777,19.0976801 11.5225225,19.1758413 C11.3920581,19.2161061 11.259677,19.2708892 11.1253754,19.3401921 C10.9910737,19.4094951 10.8702041,19.5001844 10.7627628,19.6122628 C10.6553215,19.7243413 10.5651488,19.8543001 10.4922422,20.0021432 C10.4193356,20.1499863 10.3828829,20.3213936 10.3828829,20.5163703 C10.3828829,20.6834932 10.4116614,20.8138783 10.4692192,20.9075297 C10.5267771,21.001181 10.611194,21.0726145 10.7224725,21.1218324 C10.833751,21.1710503 10.966132,21.2067907 11.1196196,21.2290548 C11.2731072,21.2513189 11.4457782,21.2699826 11.6376376,21.2850464 C11.9139153,21.3111949 12.2017002,21.3453958 12.501001,21.3876502 C12.8003018,21.4299046 13.0727382,21.5245493 13.3183183,21.6715871 C13.5638985,21.818625 13.7672665,22.0320729 13.9284284,22.3119374 C14.0895904,22.5918019 14.1701702,22.9777703 14.1701702,23.4698543 C14.1701702,24.0362152 14.0838347,24.5526161 13.9111612,25.0190727 C13.7384876,25.4855293 13.5063411,25.8983801 13.2147147,26.2576374 C12.9230883,26.6168948 12.5892578,26.9195399 12.2132132,27.1655819 C11.8371686,27.4116239 11.4496183,27.5962237 11.0505506,27.7193868 C10.4672977,27.8993944 9.90323929,27.950459 9.35835836,27.872582 C8.81347742,27.794705 8.36069583,27.5839571 8,27.2403321 L9.28928929,25.2547631 C9.48882315,25.4902889 9.7516667,25.6575277 10.0778278,25.7564845 C10.403989,25.8554413 10.7282266,25.8551808 11.0505506,25.7557029 C11.1963638,25.710701 11.3383376,25.6483151 11.4764765,25.5685433 C11.6146153,25.4887715 11.735485,25.3911188 11.8390891,25.2755823 C11.9426932,25.1600459 12.0251916,25.0231711 12.0865866,24.8649538 C12.1479816,24.7067366 12.1786787,24.5301423 12.1786787,24.3351656 C12.1786787,24.1494735 12.1403074,24.0034801 12.0635636,23.8971808 C11.9868198,23.7908816 11.8774615,23.7062556 11.7354855,23.6433003 C11.5935095,23.580345 11.4170014,23.5373333 11.205956,23.5142639 C10.9949105,23.4911945 10.7550898,23.4700439 10.4864865,23.4508115 C10.2255576,23.4292106 9.9703883,23.3872647 9.72097097,23.3249726 C9.47155364,23.2626805 9.24899998,23.1526406 9.0533033,22.9948497 C8.85760663,22.8370589 8.70028421,22.6210056 8.58133133,22.3466834 C8.46237845,22.0723613 8.4029029,21.7123751 8.4029029,21.2667141 C8.4029029,20.7189225 8.49499407,20.2216352 8.67917918,19.7748373 C8.86336428,19.3280395 9.10510361,18.9331181 9.4044044,18.5900615 C9.7037052,18.2470049 10.0413728,17.9594233 10.4174174,17.7273082 C10.793462,17.4951931 11.1733381,17.3199252 11.5570571,17.2014991 C12.0175198,17.0593878 12.4875685,17.0164472 12.9672172,17.0726758 C13.4468659,17.1289045 13.8670319,17.300975 14.2277277,17.5888925 L12.972973,19.57773 Z M18.7517518,22.069781 L18.51001,22.144389 C18.3028018,22.2083391 18.0936781,22.2844859 17.8826326,22.3728318 C17.6715872,22.4611776 17.4835677,22.5633067 17.3185686,22.6792222 C17.1535694,22.7951376 17.0173512,22.932344 16.9099099,23.0908454 C16.8024686,23.2493469 16.7487487,23.4307255 16.7487487,23.6349868 C16.7487487,23.7649713 16.7736901,23.8686873 16.8235736,23.9461379 C16.873457,24.0235886 16.9367697,24.0783243 17.0135135,24.1103467 C17.0902573,24.1423691 17.1785113,24.1545905 17.2782783,24.1470112 C17.3780452,24.1394319 17.4739735,24.1214315 17.5660661,24.0930092 C17.949785,23.9745831 18.2433256,23.7563272 18.4466967,23.4382347 C18.6500678,23.1201423 18.7517518,22.7429136 18.7517518,22.3065372 L18.7517518,22.069781 Z M15.2867868,20.1727469 C15.6244595,19.6785786 16.0177655,19.2647331 16.4667167,18.9311979 C16.9156679,18.5976627 17.3742052,18.3586588 17.8423423,18.214179 C18.3258282,18.0649622 18.7344828,18.0107949 19.0683183,18.0516756 C19.4021538,18.0925563 19.6726716,18.2318943 19.8798799,18.4696938 C20.0870881,18.7074934 20.2386548,19.0413788 20.3345846,19.4713602 C20.4305143,19.9013416 20.4784785,20.4320008 20.4784785,21.0633539 L20.4784785,24.5589898 L18.7517518,25.0919044 L18.7517518,24.3537821 L18.7172172,24.3644404 C18.571404,24.697265 18.3507689,24.9881861 18.0553053,25.2372125 C17.7598417,25.4862388 17.4394412,25.664041 17.0940941,25.7706245 C16.8638627,25.8416802 16.6259605,25.8779654 16.3803804,25.8794812 C16.1348002,25.8809971 15.910328,25.8295772 15.706957,25.7252202 C15.5035859,25.6208631 15.3366707,25.4495505 15.2062062,25.2112773 C15.0757418,24.973004 15.0105105,24.649611 15.0105105,24.2410884 C15.0105105,23.7397198 15.1237059,23.3009104 15.3501001,22.9246471 C15.5764943,22.5483838 15.8681163,22.2216275 16.224975,21.9443684 C16.5818336,21.6671093 16.9789768,21.4331266 17.4164164,21.2424132 C17.853856,21.0516999 18.2797777,20.8923955 18.6941942,20.7644954 L18.6941942,20.6530807 C18.6941942,20.3095503 18.5944288,20.087339 18.3948949,19.98644 C18.195361,19.885541 17.9497846,19.8800934 17.6581582,19.9700973 C17.3895549,20.0529955 17.1305485,20.2025654 16.8811311,20.4188114 C16.6317138,20.6350574 16.418753,20.8679032 16.2422422,21.1173559 L15.2867868,20.1727469 Z M21.9059059,24.118447 L21.9059059,13.5897589 L23.8168168,13 L23.8168168,23.5286881 L21.9059059,24.118447 Z M29.2617618,17.5866187 C29.2617618,17.2245192 29.167752,16.9425036 28.9797297,16.7405634 C28.7917074,16.5386233 28.5096782,16.4956827 28.1336336,16.6117402 C27.9494485,16.6685847 27.7806147,16.7555082 27.6271271,16.8725131 C27.4736395,16.9895181 27.3393399,17.1261323 27.2242242,17.28236 C27.1091085,17.4385877 27.0170174,17.6085976 26.9479479,17.7923948 C26.8788785,17.9761921 26.8405072,18.157476 26.8328328,18.336252 L29.2617618,17.5866187 Z M31,17.927542 L31,18.2060787 C31,18.2989248 30.9961629,18.3883114 30.9884885,18.4742414 L26.8328328,19.7567893 C26.8481816,19.9470289 26.8961457,20.1086307 26.9767267,20.2415995 C27.0573077,20.3745683 27.1609103,20.4795396 27.2875375,20.5565165 C27.4141648,20.6334935 27.5561387,20.6802 27.7134635,20.6966376 C27.8707882,20.7130751 28.0338664,20.6952404 28.2027027,20.6431329 C28.5020035,20.5507606 28.7552542,20.4052882 28.9624625,20.2067114 C29.1696707,20.0081345 29.3385045,19.7819441 29.468969,19.5281334 L30.7812813,20.1258504 C30.512678,20.6822635 30.1577433,21.1562212 29.7164665,21.5477378 C29.2751897,21.9392544 28.7629325,22.2250122 28.1796797,22.4050198 C27.7499144,22.537657 27.3431784,22.5819477 26.9594595,22.5378932 C26.5757405,22.4938387 26.2399914,22.3607061 25.9522022,22.1384914 C25.664413,21.9162768 25.4380222,21.6031629 25.273023,21.1991405 C25.1080239,20.7951182 25.0255255,20.3006494 25.0255255,19.7157193 C25.0255255,19.1493585 25.1061053,18.6115227 25.2672673,18.1021959 C25.4284292,17.5928691 25.6471458,17.1354197 25.9234234,16.7298341 C26.1997011,16.3242485 26.5258573,15.9752284 26.9019019,15.6827634 C27.2779465,15.3902984 27.6846825,15.1765662 28.1221221,15.0415605 C28.544213,14.9112918 28.9317633,14.8775646 29.2847848,14.9403778 C29.6378062,15.0031909 29.9409397,15.1579952 30.1941942,15.4047951 C30.4474487,15.651595 30.645061,15.9851963 30.787037,16.4056088 C30.9290131,16.8260214 31,17.3333274 31,17.927542 Z" id="Sale" fill="#FFFFFF" fill-rule="evenodd"></path>
            </g>
        </g>
    </g>
</svg>