<?xml version="1.0" encoding="UTF-8" standalone="no"?>
<svg width="109px" height="43px" viewBox="0 0 109 43" version="1.1" xmlns="http://www.w3.org/2000/svg" xmlns:xlink="http://www.w3.org/1999/xlink">
    <!-- Generator: Sketch 41.2 (35397) - http://www.bohemiancoding.com/sketch -->
    <title>Page 1 Copy 2</title>
    <desc>Created with Sketch.</desc>
    <defs>
        <polygon id="path-1" points="0 43 108.875 43 108.875 0.616 0 0.616"></polygon>
    </defs>
    <g id="Site" stroke="none" stroke-width="1" fill="none" fill-rule="evenodd">
        <g id="banners" transform="translate(-632.000000, -1194.000000)">
            <g id="Page-1-Copy-2" transform="translate(632.000000, 1193.000000)">
                <path d="M91.2514,0.9999 L91.2514,10.7639" id="Stroke-1" stroke="#1C1F24" stroke-width="1.5"></path>
                <path d="M93.8622,4.4084 L91.2512,10.7644" id="Stroke-3" stroke="#1C1F24" stroke-width="1.5"></path>
                <path d="M88.0308,3.0646 L91.2708,10.7636" id="Stroke-4" stroke="#1C1F24" stroke-width="1.5"></path>
                <polygon id="Stroke-6" stroke="#1C1F24" stroke-width="1.5" points="87.8602 10.4887 94.6422 10.4887 93.3252 17.3607 89.1772 17.3607"></polygon>
                <g id="Group-11" transform="translate(0.000000, 20.383700)" stroke-width="1.5" stroke="#1C1F24">
                    <polyline id="Stroke-7" points="41.2607 0.9429 81.0327 0.9409 81.0307 16.7209 0.7497 16.7209 0.7497 0.9999 41.2607 0.9999"></polyline>
                    <polyline id="Stroke-9" points="81.0332 11.9167 15.1432 11.9167 0.7502 11.9167"></polyline>
                </g>
                <polyline id="Stroke-12" stroke="#1C1F24" stroke-width="1.5" points="36.3338 20.9246 36.3338 14.9006 15.4188 14.9006 15.4188 20.9256"></polyline>
                <polyline id="Stroke-13" stroke="#1C1F24" stroke-width="1.5" points="66.107 20.9246 66.107 14.9006 45.192 14.9006 45.192 20.9256"></polyline>
                <polyline id="Stroke-14" stroke="#1C1F24" stroke-width="1.5" points="100.42 21.6596 93.496 21.6596 93.505 21.6596"></polyline>
                <polyline id="Stroke-15" stroke="#1C1F24" stroke-width="1.5" points="74.3999 18.1909 74.3999 6.0489 7.6779 6.0489 7.6779 17.8259"></polyline>
                <g id="Group-24" transform="translate(0.000000, 0.383700)">
                    <polygon id="Stroke-16" stroke="#1C1F24" stroke-width="1.5" points="15.1431 36.7209 11.1431 42.2499 7.6781 42.2499 7.6781 36.7209"></polygon>
                    <polyline id="Stroke-18" stroke="#1C1F24" stroke-width="1.5" points="74.3999 36.7209 74.3999 42.2499 70.9349 42.2499 66.9349 36.7209"></polyline>
                    <mask id="mask-2" fill="white">
                        <use xlink:href="#path-1"></use>
                    </mask>
                    <g id="Clip-21"></g>
                    <polygon id="Stroke-20" stroke="#1C1F24" stroke-width="1.5" mask="url(#mask-2)" points="85.791 25.756 108.125 25.756 108.125 16.977 85.791 16.977"></polygon>
                    <polyline id="Stroke-22" stroke="#1C1F24" stroke-width="1.5" mask="url(#mask-2)" points="85.7912 25.7559 85.7912 42.2499 87.4562 42.2499 90.6832 25.7559"></polyline>
                    <polyline id="Stroke-23" stroke="#1C1F24" stroke-width="1.5" mask="url(#mask-2)" points="108.1254 25.7559 108.1254 42.2499 106.4604 42.2499 103.2334 25.7559"></polyline>
                </g>
            </g>
        </g>
    </g>
</svg>