<?xml version="1.0" encoding="UTF-8" standalone="no"?>
<svg width="62px" height="57px" viewBox="0 0 62 57" version="1.1" xmlns="http://www.w3.org/2000/svg" xmlns:xlink="http://www.w3.org/1999/xlink">
    <!-- Generator: Sketch 41.2 (35397) - http://www.bohemiancoding.com/sketch -->
    <title>Page 1 Copy 3</title>
    <desc>Created with Sketch.</desc>
    <defs></defs>
    <g id="Site" stroke="none" stroke-width="1" fill="none" fill-rule="evenodd">
        <g id="banners" transform="translate(-872.000000, -1180.000000)" stroke="#F92D50" stroke-width="1.5">
            <g id="Page-1-Copy-3" transform="translate(872.000000, 1180.000000)">
                <path d="M53.1249,48.3216 L8.1099,48.3216" id="Stroke-1"></path>
                <g id="Group-10" transform="translate(0.000000, 17.746900)">
                    <polyline id="Stroke-2" points="60.4843 8.0038 60.4823 38.2498 57.1253 38.2498 57.1253 30.6338 57.1253 29.7768"></polyline>
                    <polyline id="Stroke-4" points="4.1083 8.0038 4.1083 0.0208 0.7503 0.0208 0.7503 38.2498 4.1093 38.2498 4.1093 29.7748"></polyline>
                    <path d="M60.484,26.8538 L1.05,26.8538" id="Stroke-6"></path>
                    <polyline id="Stroke-8" points="60.484 8.0038 4.108 8.0038 4.108 26.2538"></polyline>
                </g>
                <path d="M12.9833,25.5257 L12.9833,44.6007" id="Stroke-11"></path>
                <path d="M21.9499,25.5257 L21.9499,44.6007" id="Stroke-12"></path>
                <path d="M30.7333,25.5257 L30.7333,44.6007" id="Stroke-13"></path>
                <path d="M39.6083,25.5257 L39.6083,44.6007" id="Stroke-14"></path>
                <path d="M48.4833,25.5257 L48.4833,44.6007" id="Stroke-15"></path>
                <path d="M57.3583,26.2257 L57.3583,44.0007" id="Stroke-16"></path>
                <g id="Group-23" transform="translate(35.000000, 0.746900)">
                    <path d="M25.484,25.0038 C25.484,11.1958 14.291,0.0028 0.483,0.0028 L0.483,25.0038" id="Stroke-17"></path>
                    <path d="M0.4833,25.0038 L12.6283,3.0768" id="Stroke-19"></path>
                    <path d="M0.4833,25.0038 L22.2893,12.6428" id="Stroke-21"></path>
                </g>
            </g>
        </g>
    </g>
</svg>