<?xml version="1.0" encoding="UTF-8" standalone="no"?>
<svg width="100px" height="74px" viewBox="0 0 100 74" version="1.1" xmlns="http://www.w3.org/2000/svg" xmlns:xlink="http://www.w3.org/1999/xlink">
    <!-- Generator: Sketch 41.2 (35397) - http://www.bohemiancoding.com/sketch -->
    <title>Page 1 Copy</title>
    <desc>Created with Sketch.</desc>
    <defs></defs>
    <g id="Site" stroke="none" stroke-width="1" fill="none" fill-rule="evenodd">
        <g id="banners" transform="translate(-419.000000, -1162.000000)" stroke="#F92D50" stroke-width="1.5">
            <g id="Page-1-Copy" transform="translate(419.000000, 1162.000000)">
                <path d="M68.1544,60.0802 L68.1544,54.1442 C68.1544,50.6962 70.9494,47.9012 74.3974,47.9002 L74.7884,47.9002 C78.2364,47.9002 81.0334,50.6962 81.0324,54.1452 L81.0314,66.8682 C81.0314,67.3162 80.6674,67.6792 80.2194,67.6792 L1.5624,67.6792 C1.1134,67.6792 0.7504,67.3162 0.7504,66.8682 L0.7504,54.2022 C0.7504,50.7542 3.5454,47.9582 6.9934,47.9582 L6.9934,47.9582 C10.4414,47.9582 13.2374,50.7542 13.2374,54.2022 L13.2374,59.8362" id="Stroke-1"></path>
                <polyline id="Stroke-3" points="64.1111 53.6418 17.4101 53.6418 17.4181 53.6418"></polyline>
                <polyline id="Stroke-5" points="41.0388 49.0586 41.0388 33.2106 41.0388 33.2186"></polyline>
                <path d="M28.6383,37.1261 L21.2613,44.5031" id="Stroke-7"></path>
                <path d="M28.6391,44.5035 L21.2671,37.1285" id="Stroke-9"></path>
                <path d="M60.588,37.1261 L53.211,44.5031" id="Stroke-11"></path>
                <path d="M60.5889,44.5035 L53.2169,37.1285" id="Stroke-13"></path>
                <path d="M74.3999,44.7659 L74.3999,36.6239 C74.3959,31.9479 70.6079,28.1569 65.9319,28.1479 L16.1619,28.1479 C11.4789,28.1479 7.6819,31.9419 7.6779,36.6239 L7.6779,44.4009" id="Stroke-15"></path>
                <polyline id="Stroke-17" points="12.1431 67.6796 12.1431 73.2086 7.6781 73.2086 7.6781 67.6796"></polyline>
                <polyline id="Stroke-19" points="74.3999 67.6796 74.3999 73.2086 69.9349 73.2086 69.9349 67.6796"></polyline>
                <path d="M89.05,20.9537 L89.05,73.2087" id="Stroke-21"></path>
                <path d="M83.0614,73.2087 L95.0614,73.2087" id="Stroke-23"></path>
                <polygon id="Stroke-26" points="99.05 20.9537 79.05 20.9537 82.05 0.7497 96.05 0.7497"></polygon>
            </g>
        </g>
    </g>
</svg>