<?xml version="1.0" encoding="UTF-8" standalone="no"?>
<svg width="18px" height="14px" viewBox="0 0 18 14" version="1.1" xmlns="http://www.w3.org/2000/svg" xmlns:xlink="http://www.w3.org/1999/xlink">
    <!-- Generator: Sketch 41.2 (35397) - http://www.bohemiancoding.com/sketch -->
    <title> copy</title>
    <desc>Created with Sketch.</desc>
    <defs></defs>
    <g id="Symbols" stroke="none" stroke-width="1" fill="none" fill-rule="evenodd">
        <g id="footer-short" transform="translate(-1083.000000, -106.000000)" fill="#B9BFCE">
            <g id="footer" transform="translate(0.000000, -1.000000)">
                <path d="M1100.2375,108.6625 C1099.60313,108.935937 1098.91406,109.132812 1098.20312,109.209375 C1098.93594,108.771875 1099.49375,108.082813 1099.75625,107.2625 C1099.07812,107.667187 1098.3125,107.9625 1097.51406,108.115625 C1096.86875,107.426563 1095.95,107 1094.93281,107 C1092.975,107 1091.4,108.585938 1091.4,110.532813 C1091.4,110.80625 1091.43281,111.079688 1091.4875,111.342187 C1088.55625,111.189063 1085.94219,109.789062 1084.20312,107.645313 C1083.89687,108.170312 1083.72187,108.771875 1083.72187,109.428125 C1083.72187,110.653125 1084.34531,111.735938 1085.29688,112.370312 C1084.71719,112.348438 1084.17031,112.184375 1083.7,111.921875 L1083.7,111.965625 C1083.7,113.682812 1084.91406,115.104687 1086.53281,115.432812 C1086.2375,115.509375 1085.92031,115.553125 1085.60313,115.553125 C1085.37344,115.553125 1085.15469,115.53125 1084.93594,115.498437 C1085.38438,116.898438 1086.68594,117.915625 1088.23906,117.948437 C1087.025,118.9 1085.50469,119.457813 1083.85313,119.457813 C1083.55781,119.457813 1083.28437,119.446875 1083,119.414062 C1084.56406,120.420312 1086.42344,121 1088.425,121 C1094.92188,121 1098.47656,115.61875 1098.47656,110.948437 C1098.47656,110.795312 1098.47656,110.642188 1098.46563,110.489063 C1099.15469,109.985938 1099.75625,109.3625 1100.2375,108.6625 Z" id="-copy"></path>
            </g>
        </g>
    </g>
</svg>