<?xml version="1.0" encoding="UTF-8" standalone="no"?>
<svg width="25px" height="14px" viewBox="0 0 25 14" version="1.1" xmlns="http://www.w3.org/2000/svg" xmlns:xlink="http://www.w3.org/1999/xlink">
    <!-- Generator: Sketch 41.2 (35397) - http://www.bohemiancoding.com/sketch -->
    <title></title>
    <desc>Created with Sketch.</desc>
    <defs></defs>
    <g id="Symbols" stroke="none" stroke-width="1" fill="none" fill-rule="evenodd">
        <g id="footer-short" transform="translate(-1016.000000, -106.000000)" fill="#B9BFCE">
            <g id="footer" transform="translate(0.000000, -1.000000)">
                <path d="M1040.50355,108.012413 C1040.50355,108.012413 1040.32469,107.501383 1039.2132,107.641916 L1035.53378,107.667468 C1035.25271,107.629141 1035.0483,107.744122 1035.0483,107.744122 C1035.0483,107.744122 1034.83111,107.859104 1034.72891,108.140171 C1034.12845,109.686036 1033.3619,111.014714 1033.3619,111.014714 C1031.72661,113.799828 1031.06227,113.953137 1030.79398,113.774277 C1030.16796,113.378228 1030.33405,112.164532 1030.33405,111.295781 C1030.33405,108.587322 1030.74287,107.463056 1029.52918,107.169214 C1029.13313,107.079783 1028.83929,107.015905 1027.80445,107.003129 C1026.48855,106.990353 1025.37706,107.003129 1024.75105,107.309747 C1024.32945,107.514159 1024.01005,107.974086 1024.20169,107.999637 C1024.44443,108.037965 1024.99379,108.152946 1025.28763,108.548995 C1025.28763,108.548995 1025.60702,109.0728 1025.65812,110.222618 C1025.79866,113.40378 1025.14709,113.799828 1025.14709,113.799828 C1024.64884,114.068119 1023.78009,113.620968 1022.50251,110.989163 C1022.50251,110.989163 1021.76152,109.686036 1021.18661,108.255152 C1021.08441,107.986862 1020.87999,107.846328 1020.87999,107.846328 C1020.87999,107.846328 1020.65003,107.667468 1020.31786,107.616365 L1016.8173,107.641916 C1016.28072,107.641916 1016.08909,107.884656 1016.08909,107.884656 C1016.08909,107.884656 1015.89745,108.089068 1016.07631,108.510667 C1018.81032,114.93687 1021.92761,118.156359 1021.92761,118.156359 C1021.92761,118.156359 1024.7766,121.133109 1028.00886,120.928697 L1029.47807,120.928697 C1029.92523,120.89037 1030.15519,120.64763 1030.15519,120.64763 C1030.15519,120.64763 1030.3596,120.417667 1030.34682,119.996067 C1030.32127,118.028602 1031.24113,117.734759 1031.24113,117.734759 C1032.13543,117.453693 1033.28525,119.638346 1034.51172,120.481546 C1034.51172,120.481546 1035.44435,121.120333 1036.14702,120.9798 L1039.41761,120.928697 C1041.14233,120.915921 1040.32469,119.485037 1040.32469,119.485037 C1040.26081,119.370055 1039.85198,118.488529 1037.88452,116.661596 C1035.8404,114.758009 1036.10869,115.064627 1038.58718,111.768484 C1040.09472,109.762691 1040.69518,108.536219 1040.50355,108.012413 Z" id=""></path>
            </g>
        </g>
    </g>
</svg>