<?xml version="1.0" encoding="UTF-8" standalone="no"?>
<svg width="139px" height="38px" viewBox="0 0 139 38" version="1.1" xmlns="http://www.w3.org/2000/svg" xmlns:xlink="http://www.w3.org/1999/xlink">
    <!-- Generator: Sketch 41.2 (35397) - http://www.bohemiancoding.com/sketch -->
    <title>logo</title>
    <desc>Created with Sketch.</desc>
    <defs></defs>
    <g id="Symbols" stroke="none" stroke-width="1" fill="none" fill-rule="evenodd">
        <g id="header-many-categories-oboi" transform="translate(-40.000000, -22.000000)">
            <g id="logo" transform="translate(40.000000, 22.000000)">
                <path d="M3.58,27 L0.67,27 L0.67,5.76 L13.06,5.76 L13.06,8.34 L3.58,8.34 L3.58,27 Z M43.49,27 L40.34,27 L49.28,5.76 L52.19,5.76 L61.13,27 L57.92,27 L50.69,9.57 L43.49,27 Z M67.32,24.45 L78.33,24.45 L78.33,27 L64.47,27 L64.47,5.76 L77.91,5.76 L77.91,8.31 L67.32,8.31 L67.32,14.76 L77.25,14.76 L77.25,17.22 L67.32,17.22 L67.32,24.45 Z M83.35,5.76 L89.8,5.76 C90.9000055,5.76 91.9099954,5.87499885 92.83,6.105 C93.7500046,6.33500115 94.5399967,6.6899976 95.2,7.17 C95.8600033,7.6500024 96.3699982,8.2599963 96.73,9 C97.0900018,9.7400037 97.27,10.6199949 97.27,11.64 C97.27,12.6600051 97.0800019,13.5449962 96.7,14.295 C96.3199981,15.0450037 95.7950034,15.6649975 95.125,16.155 C94.4549967,16.6450024 93.6550047,17.0099988 92.725,17.25 C91.7949954,17.4900012 90.7900054,17.61 89.71,17.61 L86.26,17.61 L86.26,27 L83.35,27 L83.35,5.76 Z M86.26,15.21 L89.53,15.21 C91.0300075,15.21 92.2049957,14.9200029 93.055,14.34 C93.9050042,13.7599971 94.33,12.870006 94.33,11.67 C94.33,10.4299938 93.9000043,9.5400027 93.04,9 C92.1799957,8.4599973 91.0200073,8.19 89.56,8.19 L86.26,8.19 L86.26,15.21 Z M105.05,24.45 L116.06,24.45 L116.06,27 L102.2,27 L102.2,5.76 L115.64,5.76 L115.64,8.31 L105.05,8.31 L105.05,14.76 L114.98,14.76 L114.98,17.22 L105.05,17.22 L105.05,24.45 Z M132.42,8.34 L128.94,8.34 C127.139991,8.34 125.780005,8.60499735 124.86,9.135 C123.939995,9.66500265 123.48,10.5199941 123.48,11.7 C123.48,12.7600053 123.934995,13.589997 124.845,14.19 C125.755005,14.790003 127.119991,15.09 128.94,15.09 L132.42,15.09 L132.42,8.34 Z M125.13,16.59 C123.689993,16.3499988 122.540004,15.8200041 121.68,15 C120.819996,14.1799959 120.38,13.0600071 120.36,11.64 C120.36,9.6999903 121.099993,8.23500495 122.58,7.245 C124.060007,6.25499505 126.089987,5.76 128.67,5.76 L135.33,5.76 L135.33,27 L132.42,27 L132.42,17.67 L130.14,17.67 C129.079995,17.67 128.115004,17.8349983 127.245,18.165 C126.374996,18.4950016 125.620003,19.0299963 124.98,19.77 C124.339997,20.5100037 123.815002,21.474994 123.405,22.665 C122.994998,23.8550059 122.710001,25.2999915 122.55,27 L119.37,27 C119.45,25.7399937 119.649998,24.5550055 119.97,23.445 C120.290002,22.3349944 120.704997,21.3350044 121.215,20.445 C121.725003,19.5549955 122.309997,18.7900032 122.97,18.15 C123.630003,17.5099968 124.349996,17.0100018 125.13,16.65 L125.13,16.59 Z" id="Г-ЛЕРЕЯ" fill="#FFFFFF"></path>
                <path d="M36.217,30.64 L32.028,32.174 C30.3366582,28.0439794 30.2943353,27.9730201 29.901,23.961 C27.7769894,23.29233 25.8595086,22.958 24.1485,22.958 C22.4374914,22.958 20.8936736,22.9973329 19.517,23.076 C16.4489847,27.678023 13.8333442,31.0606559 11.67,33.224 C9.50665585,35.3873442 8.0316706,36.469 7.245,36.469 C6.96966529,36.469 6.832,35.4266771 6.832,33.342 C6.832,31.2573229 7.30399528,29.6250059 8.248,28.445 C9.23133825,27.186327 10.6079912,26.0260053 12.378,24.964 C14.1873424,23.8626612 15.42633,22.97767 16.095,22.309 C16.4096682,21.9943318 16.8324973,21.5125032 17.3635,20.8635 C17.8945027,20.2144968 18.49433,19.3983383 19.163,18.415 C20.5396736,16.5269906 21.7786612,14.5996765 22.88,12.633 C23.9420053,10.7449906 24.8269965,8.92584209 25.535,7.1755 C26.2430035,5.42515792 26.7149988,3.82234061 26.951,2.367 C28.0916724,2.17033235 29.3011603,1.91466824 30.5795,1.6 C31.8578397,1.28533176 33.2443259,0.9313353 34.739,0.538 C34.4243318,2.46534297 34.1785009,4.31399115 34.0015,6.084 C33.8244991,7.85400885 33.736,9.56499174 33.736,11.217 C33.736,21.4043843 33.8963217,25.2119729 36.217,30.64 Z M29.724,5.376 C28.38666,8.32601475 27.0591733,11.0596541 25.7415,13.577 C24.4238267,16.0943459 23.1160065,18.4543223 21.818,20.657 C24.2566789,20.4603324 26.773987,20.4013329 29.37,20.48 L29.37,17.176 C29.37,16.2319953 29.4879988,12.2987013 29.724,5.376 Z" id="A" fill="#EC5647"></path>
            </g>
        </g>
    </g>
</svg>