<?xml version="1.0" encoding="UTF-8" standalone="no"?>
<svg width="108px" height="54px" viewBox="0 0 108 54" version="1.1" xmlns="http://www.w3.org/2000/svg" xmlns:xlink="http://www.w3.org/1999/xlink">
    <!-- Generator: Sketch 41.2 (35397) - http://www.bohemiancoding.com/sketch -->
    <title>ДОМО СФЕРА</title>
    <desc>Created with Sketch.</desc>
    <defs></defs>
    <g id="Collection" stroke="none" stroke-width="1" fill="none" fill-rule="evenodd">
        <g id="catalog-collections" transform="translate(-117.000000, -66.000000)" fill="#FFFFFF">
            <path d="M121.885,90.69 L125.395,90.69 L125.395,87 L138.955,87 L138.955,90.69 L142.465,90.69 L142.465,83.91 L140.605,83.91 L140.605,66.99 L127.015,66.99 L125.845,77.28 C125.155,83.19 124.045,84 121.885,84.24 L121.885,90.69 Z M129.325,77.52 L130.165,70.08 L137.095,70.08 L137.095,83.91 L126.685,83.91 C128.035,82.68 128.965,80.64 129.325,77.52 Z M156.215,87.36 C162.215,87.36 166.445,82.98 166.445,77.01 C166.445,71.04 162.215,66.66 156.215,66.66 C150.215,66.66 145.985,71.04 145.985,77.01 C145.985,82.98 150.215,87.36 156.215,87.36 Z M156.215,84.24 C152.165,84.24 149.585,81.12 149.585,77.01 C149.585,72.87 152.165,69.78 156.215,69.78 C160.235,69.78 162.845,72.87 162.845,77.01 C162.845,81.12 160.235,84.24 156.215,84.24 Z M192.375,87 L192.375,66.99 L187.425,66.99 L181.965,80.16 L176.535,66.99 L171.585,66.99 L171.585,87 L175.095,87 L175.095,72.15 L181.215,87 L182.715,87 L188.865,72.15 L188.865,87 L192.375,87 Z M207.715,87.36 C213.715,87.36 217.945,82.98 217.945,77.01 C217.945,71.04 213.715,66.66 207.715,66.66 C201.715,66.66 197.485,71.04 197.485,77.01 C197.485,82.98 201.715,87.36 207.715,87.36 Z M207.715,84.24 C203.665,84.24 201.085,81.12 201.085,77.01 C201.085,72.87 203.665,69.78 207.715,69.78 C211.735,69.78 214.345,72.87 214.345,77.01 C214.345,81.12 211.735,84.24 207.715,84.24 Z M127.745,119.36 C131.795,119.36 134.255,117.26 135.785,114.86 L132.785,113.33 C131.825,115.01 129.905,116.24 127.745,116.24 C123.785,116.24 120.845,113.21 120.845,109.01 C120.845,104.81 123.785,101.78 127.745,101.78 C129.905,101.78 131.825,103.04 132.785,104.69 L135.785,103.16 C134.285,100.76 131.795,98.66 127.745,98.66 C121.835,98.66 117.245,102.86 117.245,109.01 C117.245,115.16 121.835,119.36 127.745,119.36 Z M152.475,119 L152.475,117.02 C158.385,116.54 161.985,113.6 161.985,109.01 C161.985,104.48 158.385,101.48 152.475,101 L152.475,98.99 L148.965,98.99 L148.965,101.03 C143.025,101.51 139.455,104.48 139.455,109.01 C139.455,113.6 143.025,116.54 148.965,117.02 L148.965,119 L152.475,119 Z M158.385,109.01 C158.385,111.68 156.285,113.48 152.475,113.87 L152.475,104.15 C156.285,104.57 158.385,106.37 158.385,109.01 Z M143.055,109.01 C143.055,106.37 145.155,104.57 148.965,104.15 L148.965,113.87 C145.155,113.45 143.055,111.65 143.055,109.01 Z M180.835,119 L180.835,115.91 L170.635,115.91 L170.635,110.36 L180.625,110.36 L180.625,107.27 L170.635,107.27 L170.635,102.08 L180.835,102.08 L180.835,98.99 L167.125,98.99 L167.125,119 L180.835,119 Z M189.695,119 L189.695,111.53 L194.975,111.53 C199.145,111.53 201.515,108.65 201.515,105.26 C201.515,101.87 199.175,98.99 194.975,98.99 L186.185,98.99 L186.185,119 L189.695,119 Z M194.495,108.44 L189.695,108.44 L189.695,102.08 L194.495,102.08 C196.475,102.08 197.915,103.34 197.915,105.26 C197.915,107.18 196.475,108.44 194.495,108.44 Z M224.175,119 L216.315,98.99 L211.935,98.99 L204.075,119 L208.065,119 L209.535,115.16 L218.715,115.16 L220.185,119 L224.175,119 Z M217.725,112.07 L210.525,112.07 L214.125,102.53 L217.725,112.07 Z" id="ДОМО-СФЕРА"></path>
        </g>
    </g>
</svg>