<?xml version="1.0" encoding="UTF-8" standalone="no"?>
<svg width="137px" height="51px" viewBox="0 0 137 51" version="1.1" xmlns="http://www.w3.org/2000/svg" xmlns:xlink="http://www.w3.org/1999/xlink">
    <!-- Generator: Sketch 41.2 (35397) - http://www.bohemiancoding.com/sketch -->
    <title>Group 2</title>
    <desc>Created with Sketch.</desc>
    <defs></defs>
    <g id="Symbols" stroke="none" stroke-width="1" fill="none" fill-rule="evenodd">
        <g id="header-wallpaper" transform="translate(-34.000000, -35.000000)">
            <g id="Group-2" transform="translate(34.000000, 35.000000)">
                <path d="M3.58,27 L0.67,27 L0.67,5.76 L13.06,5.76 L13.06,8.34 L3.58,8.34 L3.58,27 Z M43.49,27 L40.34,27 L49.28,5.76 L52.19,5.76 L61.13,27 L57.92,27 L50.69,9.57 L43.49,27 Z M67.32,24.45 L78.33,24.45 L78.33,27 L64.47,27 L64.47,5.76 L77.91,5.76 L77.91,8.31 L67.32,8.31 L67.32,14.76 L77.25,14.76 L77.25,17.22 L67.32,17.22 L67.32,24.45 Z M83.35,5.76 L89.8,5.76 C90.9000055,5.76 91.9099954,5.87499885 92.83,6.105 C93.7500046,6.33500115 94.5399967,6.6899976 95.2,7.17 C95.8600033,7.6500024 96.3699982,8.2599963 96.73,9 C97.0900018,9.7400037 97.27,10.6199949 97.27,11.64 C97.27,12.6600051 97.0800019,13.5449962 96.7,14.295 C96.3199981,15.0450037 95.7950034,15.6649975 95.125,16.155 C94.4549967,16.6450024 93.6550047,17.0099988 92.725,17.25 C91.7949954,17.4900012 90.7900054,17.61 89.71,17.61 L86.26,17.61 L86.26,27 L83.35,27 L83.35,5.76 Z M86.26,15.21 L89.53,15.21 C91.0300075,15.21 92.2049957,14.9200029 93.055,14.34 C93.9050042,13.7599971 94.33,12.870006 94.33,11.67 C94.33,10.4299938 93.9000043,9.5400027 93.04,9 C92.1799957,8.4599973 91.0200073,8.19 89.56,8.19 L86.26,8.19 L86.26,15.21 Z M105.05,24.45 L116.06,24.45 L116.06,27 L102.2,27 L102.2,5.76 L115.64,5.76 L115.64,8.31 L105.05,8.31 L105.05,14.76 L114.98,14.76 L114.98,17.22 L105.05,17.22 L105.05,24.45 Z M132.42,8.34 L128.94,8.34 C127.139991,8.34 125.780005,8.60499735 124.86,9.135 C123.939995,9.66500265 123.48,10.5199941 123.48,11.7 C123.48,12.7600053 123.934995,13.589997 124.845,14.19 C125.755005,14.790003 127.119991,15.09 128.94,15.09 L132.42,15.09 L132.42,8.34 Z M125.13,16.59 C123.689993,16.3499988 122.540004,15.8200041 121.68,15 C120.819996,14.1799959 120.38,13.0600071 120.36,11.64 C120.36,9.6999903 121.099993,8.23500495 122.58,7.245 C124.060007,6.25499505 126.089987,5.76 128.67,5.76 L135.33,5.76 L135.33,27 L132.42,27 L132.42,17.67 L130.14,17.67 C129.079995,17.67 128.115004,17.8349983 127.245,18.165 C126.374996,18.4950016 125.620003,19.0299963 124.98,19.77 C124.339997,20.5100037 123.815002,21.474994 123.405,22.665 C122.994998,23.8550059 122.710001,25.2999915 122.55,27 L119.37,27 C119.45,25.7399937 119.649998,24.5550055 119.97,23.445 C120.290002,22.3349944 120.704997,21.3350044 121.215,20.445 C121.725003,19.5549955 122.309997,18.7900032 122.97,18.15 C123.630003,17.5099968 124.349996,17.0100018 125.13,16.65 L125.13,16.59 Z" id="Г-ЛЕРЕЯ" fill="#FFFFFF"></path>
                <path d="M36.217,30.64 L32.028,32.174 C30.3366582,28.0439794 30.2943353,27.9730201 29.901,23.961 C27.7769894,23.29233 25.8595086,22.958 24.1485,22.958 C22.4374914,22.958 20.8936736,22.9973329 19.517,23.076 C16.4489847,27.678023 13.8333442,31.0606559 11.67,33.224 C9.50665585,35.3873442 8.0316706,36.469 7.245,36.469 C6.96966529,36.469 6.832,35.4266771 6.832,33.342 C6.832,31.2573229 7.30399528,29.6250059 8.248,28.445 C9.23133825,27.186327 10.6079912,26.0260053 12.378,24.964 C14.1873424,23.8626612 15.42633,22.97767 16.095,22.309 C16.4096682,21.9943318 16.8324973,21.5125032 17.3635,20.8635 C17.8945027,20.2144968 18.49433,19.3983383 19.163,18.415 C20.5396736,16.5269906 21.7786612,14.5996765 22.88,12.633 C23.9420053,10.7449906 24.8269965,8.92584209 25.535,7.1755 C26.2430035,5.42515792 26.7149988,3.82234061 26.951,2.367 C28.0916724,2.17033235 29.3011603,1.91466824 30.5795,1.6 C31.8578397,1.28533176 33.2443259,0.9313353 34.739,0.538 C34.4243318,2.46534297 34.1785009,4.31399115 34.0015,6.084 C33.8244991,7.85400885 33.736,9.56499174 33.736,11.217 C33.736,21.4043843 33.8963217,25.2119729 36.217,30.64 Z M29.724,5.376 C28.38666,8.32601475 27.0591733,11.0596541 25.7415,13.577 C24.4238267,16.0943459 23.1160065,18.4543223 21.818,20.657 C24.2566789,20.4603324 26.773987,20.4013329 29.37,20.48 L29.37,17.176 C29.37,16.2319953 29.4879988,12.2987013 29.724,5.376 Z" id="A" fill="#EC5647"></path>
                <path d="M31.195,39.86 L37.465,39.86 L37.465,40.985 L34.96,40.985 L34.96,47 L33.565,47 L33.565,40.985 L31.195,40.985 L31.195,39.86 Z M46.635,43.43 C46.635,43.9800027 46.537501,44.4849977 46.3425,44.945 C46.147499,45.4050023 45.8775017,45.8024983 45.5325,46.1375 C45.1874983,46.4725017 44.7800024,46.7324991 44.31,46.9175 C43.8399977,47.1025009 43.3300028,47.195 42.78,47.195 C42.2299973,47.195 41.7225023,47.1025009 41.2575,46.9175 C40.7924977,46.7324991 40.3875017,46.4725017 40.0425,46.1375 C39.6974983,45.8024983 39.427501,45.4050023 39.2325,44.945 C39.037499,44.4849977 38.94,43.9800027 38.94,43.43 C38.94,42.8799972 39.037499,42.3750023 39.2325,41.915 C39.427501,41.4549977 39.6974983,41.0575017 40.0425,40.7225 C40.3875017,40.3874983 40.7924977,40.1275009 41.2575,39.9425 C41.7225023,39.7574991 42.2299973,39.665 42.78,39.665 C43.3300028,39.665 43.8399977,39.7574991 44.31,39.9425 C44.7800024,40.1275009 45.1874983,40.3874983 45.5325,40.7225 C45.8775017,41.0575017 46.147499,41.4549977 46.3425,41.915 C46.537501,42.3750023 46.635,42.8799972 46.635,43.43 Z M45.225,43.43 C45.225,43.0699982 45.1675006,42.7325016 45.0525,42.4175 C44.9374994,42.1024984 44.7750011,41.8275012 44.565,41.5925 C44.354999,41.3574988 44.1000015,41.1725007 43.8,41.0375 C43.4999985,40.9024993 43.1600019,40.835 42.78,40.835 C42.3999981,40.835 42.0600015,40.9024993 41.76,41.0375 C41.4599985,41.1725007 41.2050011,41.3574988 40.995,41.5925 C40.784999,41.8275012 40.6250006,42.1024984 40.515,42.4175 C40.4049995,42.7325016 40.35,43.0699982 40.35,43.43 C40.35,43.7800017 40.4049995,44.1124984 40.515,44.4275 C40.6250006,44.7425016 40.784999,45.0174988 40.995,45.2525 C41.2050011,45.4875012 41.4599985,45.6749993 41.76,45.815 C42.0600015,45.9550007 42.3999981,46.025 42.78,46.025 C43.1600019,46.025 43.4999985,45.9550007 43.8,45.815 C44.1000015,45.6749993 44.354999,45.4875012 44.565,45.2525 C44.7750011,45.0174988 44.9374994,44.7425016 45.0525,44.4275 C45.1675006,44.1124984 45.225,43.7800017 45.225,43.43 Z M50.555,50.6 L49.16,50.6 L49.16,39.86 L50.525,39.86 L50.525,41 L50.57,41 C50.8500014,40.5799979 51.2199977,40.2550011 51.68,40.025 C52.1400023,39.7949989 52.6299974,39.68 53.15,39.68 C53.6900027,39.68 54.1824978,39.777499 54.6275,39.9725 C55.0725022,40.167501 55.4524984,40.4349983 55.7675,40.775 C56.0825016,41.1150017 56.3249992,41.5124977 56.495,41.9675 C56.6650009,42.4225023 56.75,42.9099974 56.75,43.43 C56.75,43.9500026 56.6650009,44.4374977 56.495,44.8925 C56.3249992,45.3475023 56.0825016,45.7449983 55.7675,46.085 C55.4524984,46.4250017 55.0725022,46.694999 54.6275,46.895 C54.1824978,47.095001 53.6850028,47.195 53.135,47.195 C52.6449976,47.195 52.1700023,47.0850011 51.71,46.865 C51.2499977,46.6449989 50.8800014,46.3250021 50.6,45.905 L50.555,45.905 L50.555,50.6 Z M55.34,43.43 C55.34,43.0799982 55.2875005,42.7475016 55.1825,42.4325 C55.0774995,42.1174984 54.9200011,41.8425012 54.71,41.6075 C54.499999,41.3724988 54.2450015,41.1850007 53.945,41.045 C53.6449985,40.9049993 53.300002,40.835 52.91,40.835 C52.5499982,40.835 52.2175015,40.9024993 51.9125,41.0375 C51.6074985,41.1725007 51.3450011,41.3574988 51.125,41.5925 C50.9049989,41.8275012 50.7350006,42.1024984 50.615,42.4175 C50.4949994,42.7325016 50.435,43.0699982 50.435,43.43 C50.435,43.7900018 50.4949994,44.1274984 50.615,44.4425 C50.7350006,44.7575016 50.9049989,45.0324988 51.125,45.2675 C51.3450011,45.5025012 51.6074985,45.6874993 51.9125,45.8225 C52.2175015,45.9575007 52.5499982,46.025 52.91,46.025 C53.300002,46.025 53.6449985,45.9550007 53.945,45.815 C54.2450015,45.6749993 54.499999,45.4875012 54.71,45.2525 C54.9200011,45.0174988 55.0774995,44.7425016 55.1825,44.4275 C55.2875005,44.1124984 55.34,43.7800017 55.34,43.43 Z M60.625,47 L59.23,47 L59.23,39.86 L63.82,39.86 L63.82,40.985 L60.625,40.985 L60.625,47 Z M73.005,43.43 C73.005,43.9800027 72.907501,44.4849977 72.7125,44.945 C72.517499,45.4050023 72.2475017,45.8024983 71.9025,46.1375 C71.5574983,46.4725017 71.1500024,46.7324991 70.68,46.9175 C70.2099977,47.1025009 69.7000028,47.195 69.15,47.195 C68.5999973,47.195 68.0925023,47.1025009 67.6275,46.9175 C67.1624977,46.7324991 66.7575017,46.4725017 66.4125,46.1375 C66.0674983,45.8024983 65.797501,45.4050023 65.6025,44.945 C65.407499,44.4849977 65.31,43.9800027 65.31,43.43 C65.31,42.8799972 65.407499,42.3750023 65.6025,41.915 C65.797501,41.4549977 66.0674983,41.0575017 66.4125,40.7225 C66.7575017,40.3874983 67.1624977,40.1275009 67.6275,39.9425 C68.0925023,39.7574991 68.5999973,39.665 69.15,39.665 C69.7000028,39.665 70.2099977,39.7574991 70.68,39.9425 C71.1500024,40.1275009 71.5574983,40.3874983 71.9025,40.7225 C72.2475017,41.0575017 72.517499,41.4549977 72.7125,41.915 C72.907501,42.3750023 73.005,42.8799972 73.005,43.43 Z M71.595,43.43 C71.595,43.0699982 71.5375006,42.7325016 71.4225,42.4175 C71.3074994,42.1024984 71.1450011,41.8275012 70.935,41.5925 C70.724999,41.3574988 70.4700015,41.1725007 70.17,41.0375 C69.8699985,40.9024993 69.5300019,40.835 69.15,40.835 C68.7699981,40.835 68.4300015,40.9024993 68.13,41.0375 C67.8299985,41.1725007 67.5750011,41.3574988 67.365,41.5925 C67.154999,41.8275012 66.9950006,42.1024984 66.885,42.4175 C66.7749995,42.7325016 66.72,43.0699982 66.72,43.43 C66.72,43.7800017 66.7749995,44.1124984 66.885,44.4275 C66.9950006,44.7425016 67.154999,45.0174988 67.365,45.2525 C67.5750011,45.4875012 67.8299985,45.6749993 68.13,45.815 C68.4300015,45.9550007 68.7699981,46.025 69.15,46.025 C69.5300019,46.025 69.8699985,45.9550007 70.17,45.815 C70.4700015,45.6749993 70.724999,45.4875012 70.935,45.2525 C71.1450011,45.0174988 71.3074994,44.7425016 71.4225,44.4275 C71.5375006,44.1124984 71.595,43.7800017 71.595,43.43 Z M78.59,42.935 C79.0400023,42.935 79.4024986,42.8675007 79.6775,42.7325 C79.9525014,42.5974993 80.09,42.325002 80.09,41.915 C80.09,41.6749988 80.0375005,41.4900006 79.9325,41.36 C79.8274995,41.2299993 79.680001,41.1300003 79.49,41.06 C79.2999991,40.9899996 79.0775013,40.9475001 78.8225,40.9325 C78.5674987,40.9174999 78.2900015,40.91 77.99,40.91 L76.88,40.91 L76.88,42.935 L78.59,42.935 Z M76.88,45.95 L78.095,45.95 C78.4150016,45.95 78.7149986,45.945 78.995,45.935 C79.2750014,45.9249999 79.519999,45.8875003 79.73,45.8225 C79.9400011,45.7574997 80.1049994,45.6525007 80.225,45.5075 C80.3450006,45.3624993 80.405,45.1600013 80.405,44.9 C80.405,44.6399987 80.3475006,44.4400007 80.2325,44.3 C80.1174994,44.1599993 79.9550011,44.0550003 79.745,43.985 C79.534999,43.9149996 79.2875014,43.875 79.0025,43.865 C78.7174986,43.8549999 78.4050017,43.85 78.065,43.85 L76.88,43.85 L76.88,45.95 Z M75.485,47 L75.485,39.86 L78.8,39.86 C79.7100046,39.86 80.3899978,40.0349983 80.84,40.385 C81.2900023,40.7350018 81.515,41.1999971 81.515,41.78 C81.515,42.0500014 81.4725004,42.2749991 81.3875,42.455 C81.3024996,42.6350009 81.1875007,42.7824994 81.0425,42.8975 C80.8974993,43.0125006 80.730001,43.1049996 80.54,43.175 C80.3499991,43.2450003 80.1450011,43.3099997 79.925,43.37 C80.1850013,43.3900001 80.4324988,43.4349997 80.6675,43.505 C80.9025012,43.5750004 81.1074991,43.6799993 81.2825,43.82 C81.4575009,43.9600007 81.5974995,44.134999 81.7025,44.345 C81.8075005,44.555001 81.86,44.8049985 81.86,45.095 C81.86,45.6650029 81.6150025,46.1249983 81.125,46.475 C80.6349976,46.8250018 79.9200047,47 78.98,47 L75.485,47 Z M85.645,39.86 L85.645,42.26 L86.92,42.26 C87.4900029,42.26 87.972498,42.3149994 88.3675,42.425 C88.762502,42.5350006 89.0824988,42.692499 89.3275,42.8975 C89.5725012,43.102501 89.7499995,43.3499986 89.86,43.64 C89.9700006,43.9300014 90.025,44.2549982 90.025,44.615 C90.025,45.3550037 89.7675026,45.9374979 89.2525,46.3625 C88.7374974,46.7875021 87.9650052,47 86.935,47 L84.25,47 L84.25,39.86 L85.645,39.86 Z M85.645,45.95 L86.89,45.95 C87.4000026,45.95 87.8149984,45.8575009 88.135,45.6725 C88.4550016,45.4874991 88.615,45.1350026 88.615,44.615 C88.615,44.3549987 88.5700005,44.1400008 88.48,43.97 C88.3899996,43.7999991 88.2650008,43.6650005 88.105,43.565 C87.9449992,43.4649995 87.7575011,43.3950002 87.5425,43.355 C87.3274989,43.3149998 87.0950013,43.295 86.845,43.295 L85.645,43.295 L85.645,45.95 Z M92.26,39.86 L92.26,47 L90.865,47 L90.865,39.86 L92.26,39.86 Z M100.62,41.645 L96.57,47 L95.16,47 L95.16,39.86 L96.57,39.86 L96.57,45.065 L100.62,39.86 L102.03,39.86 L102.03,47 L100.62,47 L100.62,41.645 Z M97.065,36.395 C97.1750006,36.7050015 97.3749986,36.9649989 97.665,37.175 C97.9550015,37.385001 98.299998,37.49 98.7,37.49 C99.100002,37.49 99.4449986,37.385001 99.735,37.175 C100.025001,36.9649989 100.224999,36.7050015 100.335,36.395 L101.16,36.8 C101.08,37.010001 100.967501,37.2074991 100.8225,37.3925 C100.677499,37.5775009 100.500001,37.7399993 100.29,37.88 C100.079999,38.0200007 99.8400014,38.1324996 99.57,38.2175 C99.2999987,38.3025004 99.0100016,38.345 98.7,38.345 C98.3799984,38.345 98.0875013,38.3025004 97.8225,38.2175 C97.5574987,38.1324996 97.3200011,38.0200007 97.11,37.88 C96.899999,37.7399993 96.7200008,37.5775009 96.57,37.3925 C96.4199993,37.2074991 96.3100004,37.010001 96.24,36.8 L97.065,36.395 Z M109.255,49.085 L107.995,49.085 L107.995,45.86 L109.15,45.86 L111.61,39.86 L113.05,39.86 L115.33,45.86 L116.53,45.86 L116.53,49.085 L115.27,49.085 L115.27,47 L109.255,47 L109.255,49.085 Z M111.895,42.395 L110.575,45.86 L113.935,45.86 L112.345,41.48 L111.895,42.395 Z M125.52,43.43 C125.52,43.9800027 125.422501,44.4849977 125.2275,44.945 C125.032499,45.4050023 124.762502,45.8024983 124.4175,46.1375 C124.072498,46.4725017 123.665002,46.7324991 123.195,46.9175 C122.724998,47.1025009 122.215003,47.195 121.665,47.195 C121.114997,47.195 120.607502,47.1025009 120.1425,46.9175 C119.677498,46.7324991 119.272502,46.4725017 118.9275,46.1375 C118.582498,45.8024983 118.312501,45.4050023 118.1175,44.945 C117.922499,44.4849977 117.825,43.9800027 117.825,43.43 C117.825,42.8799972 117.922499,42.3750023 118.1175,41.915 C118.312501,41.4549977 118.582498,41.0575017 118.9275,40.7225 C119.272502,40.3874983 119.677498,40.1275009 120.1425,39.9425 C120.607502,39.7574991 121.114997,39.665 121.665,39.665 C122.215003,39.665 122.724998,39.7574991 123.195,39.9425 C123.665002,40.1275009 124.072498,40.3874983 124.4175,40.7225 C124.762502,41.0575017 125.032499,41.4549977 125.2275,41.915 C125.422501,42.3750023 125.52,42.8799972 125.52,43.43 Z M124.11,43.43 C124.11,43.0699982 124.052501,42.7325016 123.9375,42.4175 C123.822499,42.1024984 123.660001,41.8275012 123.45,41.5925 C123.239999,41.3574988 122.985002,41.1725007 122.685,41.0375 C122.384999,40.9024993 122.045002,40.835 121.665,40.835 C121.284998,40.835 120.945002,40.9024993 120.645,41.0375 C120.344999,41.1725007 120.090001,41.3574988 119.88,41.5925 C119.669999,41.8275012 119.510001,42.1024984 119.4,42.4175 C119.289999,42.7325016 119.235,43.0699982 119.235,43.43 C119.235,43.7800017 119.289999,44.1124984 119.4,44.4275 C119.510001,44.7425016 119.669999,45.0174988 119.88,45.2525 C120.090001,45.4875012 120.344999,45.6749993 120.645,45.815 C120.945002,45.9550007 121.284998,46.025 121.665,46.025 C122.045002,46.025 122.384999,45.9550007 122.685,45.815 C122.985002,45.6749993 123.239999,45.4875012 123.45,45.2525 C123.660001,45.0174988 123.822499,44.7425016 123.9375,44.4275 C124.052501,44.1124984 124.11,43.7800017 124.11,43.43 Z M129.2,39.86 L132.125,43.325 L135.005,39.86 L136.205,39.86 L136.205,47 L134.81,47 L134.81,41.84 L132.32,45.02 L131.9,45.02 L129.395,41.9 L129.395,47 L128,47 L128,39.86 L129.2,39.86 Z" id="торговый-дом" fill="#FFFFFF"></path>
            </g>
        </g>
    </g>
</svg>