<?xml version="1.0" encoding="UTF-8" standalone="no"?>
<svg width="31px" height="10px" viewBox="0 0 31 10" version="1.1" xmlns="http://www.w3.org/2000/svg" xmlns:xlink="http://www.w3.org/1999/xlink">
    <!-- Generator: Sketch 41.2 (35397) - http://www.bohemiancoding.com/sketch -->
    <title>СОМ Copy 10</title>
    <desc>Created with Sketch.</desc>
    <defs></defs>
    <g id="Collection" stroke="none" stroke-width="1" fill="none" fill-rule="evenodd">
        <g id="cards" transform="translate(-592.000000, -1057.000000)" fill="#1C1F24">
            <path d="M597.213,1066.464 C598.188,1066.464 598.994,1066.295 599.618,1065.97 L599.618,1063.292 C599.007,1063.721 598.266,1063.942 597.369,1063.942 C596.641,1063.942 596.043,1063.734 595.575,1063.331 C595.107,1062.915 594.873,1062.382 594.873,1061.732 C594.873,1061.095 595.094,1060.575 595.549,1060.159 C596.004,1059.73 596.576,1059.522 597.265,1059.522 C598.006,1059.522 598.747,1059.717 599.488,1060.12 L599.488,1057.481 C598.851,1057.156 598.084,1057 597.187,1057 C595.692,1057 594.444,1057.442 593.469,1058.326 C592.494,1059.197 592,1060.341 592,1061.732 C592,1063.123 592.494,1064.267 593.482,1065.151 C594.47,1066.022 595.718,1066.464 597.213,1066.464 Z M604.514667,1063.305 C604.137667,1062.889 603.942667,1062.369 603.942667,1061.732 C603.942667,1061.095 604.137667,1060.575 604.514667,1060.172 C604.891667,1059.756 605.372667,1059.548 605.957667,1059.548 C606.542667,1059.548 607.023667,1059.756 607.400667,1060.172 C607.777667,1060.575 607.972667,1061.095 607.972667,1061.732 C607.972667,1062.369 607.777667,1062.889 607.400667,1063.305 C607.023667,1063.708 606.542667,1063.916 605.957667,1063.916 C605.372667,1063.916 604.891667,1063.708 604.514667,1063.305 Z M601.082667,1061.732 C601.082667,1063.032 601.537667,1064.15 602.460667,1065.073 C603.383667,1065.996 604.553667,1066.464 605.957667,1066.464 C607.361667,1066.464 608.518667,1066.009 609.441667,1065.086 C610.364667,1064.163 610.819667,1063.045 610.819667,1061.732 C610.819667,1060.419 610.364667,1059.314 609.441667,1058.391 C608.518667,1057.468 607.361667,1057 605.957667,1057 C604.553667,1057 603.383667,1057.468 602.460667,1058.391 C601.537667,1059.314 601.082667,1060.419 601.082667,1061.732 Z M615.521333,1066.282 L615.521333,1061.186 L616.860333,1063.357 L618.368333,1063.357 L619.655333,1061.186 L619.655333,1066.282 L622.333333,1066.282 L622.333333,1057.182 L619.577333,1057.182 L617.575333,1060.419 L615.586333,1057.182 L612.817333,1057.182 L612.817333,1066.282 L615.521333,1066.282 Z" id="СОМ-Copy-10"></path>
        </g>
    </g>
</svg>