<?xml version="1.0" encoding="UTF-8" standalone="no"?>
<svg width="46px" height="45px" viewBox="0 0 46 45" version="1.1" xmlns="http://www.w3.org/2000/svg" xmlns:xlink="http://www.w3.org/1999/xlink">
    <!-- Generator: Sketch 41.2 (35397) - http://www.bohemiancoding.com/sketch -->
    <title>icon-new copy</title>
    <desc>Created with Sketch.</desc>
    <defs>
        <polygon id="path-1" points="20 0 14.4122067 5.33348746 6.94486187 4.75320772 5.85365854 12.5141602 0 16.7818749 3.91399838 23.5186684 2.41128193 30.4635302 9.5017917 33.1938504 13.0551381 39.3919778 20 37.0153739 26.9448619 39.3919778 30.4982083 33.1938504 37.5864062 30.4635302 36.0860016 23.5186684 40 16.7818749 34.1440296 12.5141602 33.0528263 4.75320772 25.5877933 5.33348746"></polygon>
        <mask id="mask-2" maskContentUnits="userSpaceOnUse" maskUnits="objectBoundingBox" x="-2" y="-2" width="44" height="43.3919778">
            <rect x="-2" y="-2" width="44" height="43.3919778" fill="white"></rect>
            <use xlink:href="#path-1" fill="black"></use>
        </mask>
    </defs>
    <g id="Collection" stroke="none" stroke-width="1" fill="none" fill-rule="evenodd">
        <g id="cards" transform="translate(-194.000000, -819.000000)">
            <g id="icon-new" transform="translate(197.000000, 822.000000)">
                <g id="Page-1-Copy">
                    <use fill="#26BFCD" fill-rule="evenodd" xlink:href="#path-1"></use>
                    <use stroke-opacity="0.5" stroke="#FFFFFF" mask="url(#mask-2)" stroke-width="4" xlink:href="#path-1"></use>
                </g>
                <path d="M12.9450549,26.0447984 L9.81318681,20.4505475 L9.78021978,20.4594093 L9.82417582,26.8837188 L8,27.3740737 L8,17.5322234 L10.1428571,16.9562041 L13.2637363,22.539508 L13.2967033,22.5306462 L13.2527473,16.1202376 L15.0769231,15.6298827 L15.0769231,25.471733 L12.9450549,26.0447984 Z M20.3516484,19.8001583 C20.3516484,19.4387326 20.2619057,19.1524055 20.0824176,18.9411684 C19.9029295,18.7299313 19.6337014,18.6725616 19.2747253,18.7690576 C19.0989002,18.816321 18.9377297,18.894397 18.7912088,19.0032881 C18.6446879,19.1121792 18.5164841,19.2416302 18.4065934,19.391645 C18.2967027,19.5416598 18.2087915,19.7066158 18.1428571,19.8865177 C18.0769227,20.0664197 18.0402931,20.2453922 18.032967,20.4234407 L20.3516484,19.8001583 Z M22.010989,20.2298704 L22.010989,20.5078888 C22.010989,20.600562 22.007326,20.6895849 22,20.7749602 L18.032967,21.8413344 C18.0476191,22.0320096 18.0934062,22.1957782 18.1703297,22.332645 C18.2472531,22.4695118 18.3461532,22.5796175 18.467033,22.6629655 C18.5879127,22.7463135 18.7234425,22.800237 18.8736264,22.8247375 C19.0238103,22.849238 19.1794864,22.839826 19.3406593,22.7965012 C19.6263751,22.7196983 19.8681309,22.587525 20.0659341,22.3999775 C20.2637373,22.21243 20.4249078,21.9953462 20.5494505,21.7487195 L21.8021978,22.4128359 C21.5457863,22.9543952 21.2069618,23.4092113 20.7857143,23.7772979 C20.3644668,24.1453845 19.8754607,24.4042576 19.3186813,24.5539249 C18.9084229,24.664206 18.5201484,24.6874898 18.1538462,24.623777 C17.787544,24.5600641 17.4670343,24.4099067 17.1923077,24.1733003 C16.917581,23.9366939 16.701466,23.6125162 16.543956,23.2007573 C16.3864461,22.7889985 16.3076923,22.2912058 16.3076923,21.7073643 C16.3076923,21.1420574 16.3846146,20.609368 16.5384615,20.1092799 C16.6923085,19.6091919 16.9010976,19.1638457 17.1648352,18.7732279 C17.4285727,18.3826101 17.7399249,18.0510186 18.0989011,17.7784434 C18.4578773,17.5058682 18.8461518,17.3134583 19.2637363,17.2012078 C19.6666687,17.0928959 20.0366284,17.0791689 20.3736264,17.1600263 C20.7106244,17.2408837 20.9999988,17.4109945 21.2417582,17.6703638 C21.4835177,17.929733 21.6721605,18.2728796 21.8076923,18.6998137 C21.9432241,19.1267478 22.010989,19.6367616 22.010989,20.2298704 Z M30.0989011,21.4336899 L28.2857143,21.9210909 L27.2087912,17.9012928 L26.1318681,22.5000642 L24.3186813,22.9874651 L22.4285714,16.5728863 L24.3736264,16.050038 L25.3186813,20.174788 L25.3516484,20.1659262 L26.3296703,15.5242357 L28.1428571,15.0368348 L29.1538462,19.1438611 L30.1318681,14.5021707 L32,14 L30.0989011,21.4336899 Z" id="New!" fill="#FFFFFF" fill-rule="evenodd"></path>
            </g>
        </g>
    </g>
</svg>